<svg xmlns="http://www.w3.org/2000/svg" width="74.76" height="48" viewBox="0 0 74.76 48"><defs>
    <style>
      .cls-1 {
        fill: #b5b5b6;
      }
    </style>
  </defs><path class="cls-1" d="M74.55,25.25,66,2.19a3.35,3.35,0,0,0-4.3-2L20.12,15.6a3.35,3.35,0,0,0-2,4.3L26.67,43a3.35,3.35,0,0,0,1.74,1.88,3.42,3.42,0,0,0,1.4.3A3.35,3.35,0,0,0,31,44.93l41.6-15.39h0A3.34,3.34,0,0,0,74.55,25.25ZM59.43,4.62,46.53,23.07l-21.8-5.61ZM29.21,40.17l-7.4-20L39,24.57Zm3.62.51,9.51-15.23,4.48,1.15a2,2,0,0,0,.42,0,1.69,1.69,0,0,0,1.37-.71l2.64-3.79,17.14,5.37ZM53.27,19.27,63.41,4.77l7.4,20Z"/><path class="cls-1" d="M17.33,42.43,11,44.76A1.67,1.67,0,0,0,11.61,48a1.65,1.65,0,0,0,.58-.1l6.31-2.34a1.67,1.67,0,0,0-1.17-3.13Z"/><path class="cls-1" d="M5.5,31.58a1.73,1.73,0,0,0,.58-.1L10,30A1.67,1.67,0,0,0,8.81,26.9L4.92,28.34a1.67,1.67,0,0,0,.58,3.24Z"/><path class="cls-1" d="M4,39.57,1.09,40.64a1.67,1.67,0,0,0,.58,3.24,1.65,1.65,0,0,0,.58-.1l2.89-1.07A1.67,1.67,0,1,0,4,39.57Z"/></svg>